<?xml version="1.0" encoding="UTF-8"?>
<svg width="14px" height="22px" viewBox="0 0 14 22" version="1.1" xmlns="http://www.w3.org/2000/svg" xmlns:xlink="http://www.w3.org/1999/xlink">
    <!-- Generator: Sketch 53.1 (72631) - https://sketchapp.com -->
    <title>child</title>
    <desc>Created with Sketch.</desc>
    <g id="Symbols" stroke="none" stroke-width="1" fill="none" fill-rule="evenodd">
        <g id="level/five" transform="translate(-21.000000, -17.000000)" fill="#FFFFFF">
            <g id="fifth_level">
                <g id="icon_pro">
                    <g id="child" transform="translate(28.000000, 28.000000) scale(-1, 1) translate(-28.000000, -28.000000) translate(21.000000, 17.000000)">
                        <path d="M13.7734579,10.0575881 C13.6270859,9.96985222 13.4459945,9.98324092 13.3106014,10.0917692 C12.2054987,10.9756896 11.322081,11.6383417 10.7576594,12.0078167 C9.77863193,12.6487897 8.30794352,13.4435555 7.24598673,13.9977236 C7.11229515,14.0679035 7.02004796,14.2078642 7.00311369,14.3690163 C6.98532866,14.5297251 7.04455808,14.6895028 7.15965438,14.7915584 C9.07541422,16.488244 11.2602993,18.1077893 12.3916136,18.9219731 C12.4635235,18.9732226 12.5464528,19 12.6302328,19 C12.6674639,19 12.7055458,18.9949017 12.7419261,18.9838183 C12.8620864,18.9491939 12.96195,18.8600393 13.0177764,18.7390533 C13.3274952,18.0652735 13.5356489,17.3587313 13.6363227,16.639687 L13.7166997,16.0550175 L13.9993156,10.4994596 C14.0087146,10.3166728 13.9206807,10.1448807 13.7734579,10.0575881 Z" id="Path"></path>
                        <path d="M11.8000782,19.0996878 C10.5475594,18.2431837 7.38963321,16.0235623 5.13004847,13.9196602 C3.27606549,12.1940256 1.74671393,10.3843461 0.790113886,9.16988047 C0.668262502,9.01441672 0.461981943,8.95926897 0.284413972,9.03112159 C0.104220611,9.10388539 -0.00979627941,9.28828978 0.000663603455,9.48853125 L0.328795546,15.5910581 L0.407140486,16.1184981 C0.911131814,19.5263779 3.68775148,22 7.00841006,22 C8.84414034,22 10.6197784,21.1991209 11.8801734,19.8025072 C11.9698117,19.703059 12.0124847,19.5674675 11.9968157,19.4318761 C11.9820219,19.296328 11.9097612,19.1747079 11.8000782,19.0996878 Z" id="Path"></path>
                        <path d="M6.98193208,0 C3.38898055,0 0.390588677,2.77399916 0.00676629806,6.45275494 C-0.010378151,6.61922541 -0.00352857446,6.72431334 0.131002031,6.81837955 C0.161845633,6.85326755 0.236370666,6.95174244 0.35117285,7.10142598 C1.00737869,7.95984896 3.00519919,10.5722102 5.44762693,12.8812197 C5.52986287,12.9593892 5.63609283,13 5.74404544,13 C5.80745529,13 5.87082413,12.9858837 5.92996837,12.9576087 C6.77468112,12.5500168 8.87442496,11.5194005 10.1131729,10.7532633 C11.1617734,10.1054825 13.0404851,8.66150906 13.7995166,8.0707021 C13.9031626,7.99079458 13.9665724,7.86802949 13.973422,7.73509051 L14,7.23478888 C13.999959,3.24560191 10.8516147,0 6.98193208,0 Z M11.1651777,7.17912915 C10.7830779,9.2907649 9.02687931,10.8521621 6.98193208,10.8521621 C4.93698485,10.8521621 3.18078624,9.2907649 2.79872752,7.17912915 C2.40551261,6.94996201 2.15708216,6.52206465 2.15708216,6.03986409 C2.15708216,5.49055816 2.49119384,5.00878151 2.97008998,4.81759694 C3.45337478,3.38604415 4.59315252,2.32698334 5.9499839,1.95949352 C5.87640222,2.10078359 5.81143378,2.24796603 5.75434031,2.40701804 C5.61386247,2.79782305 5.64126077,3.22436389 5.82972667,3.60855586 C6.03447568,4.02365106 6.40115361,4.33493007 6.83718863,4.46257015 C6.96056304,4.49877228 7.08648041,4.51687335 7.21071614,4.51687335 C7.43859786,4.51687335 7.66475693,4.45680494 7.86864463,4.33933876 C8.18561186,4.15739548 8.41521622,3.85891863 8.51459661,3.49859294 C8.69022467,2.85653494 8.32785336,2.18577806 7.70589541,2.00387717 C7.46858014,1.93367725 7.22958324,2.07496731 7.16363043,2.31519857 C7.09767762,2.55542983 7.23302853,2.8057926 7.46603718,2.87378818 C7.62365947,2.91969791 7.71446763,3.08972925 7.66992488,3.25179103 C7.63481567,3.37938872 7.55426137,3.48494295 7.44204316,3.54942005 C7.32982494,3.61432107 7.19960096,3.62979388 7.07708787,3.59270153 C6.87918843,3.53441355 6.70528302,3.38735827 6.61275221,3.19926826 C6.55791458,3.08841512 6.50738357,2.91533161 6.57678168,2.72105248 C6.69330651,2.39714087 6.83251287,2.120114 7.2302805,1.82977627 C8.92249504,1.93770442 10.4198453,3.11719879 10.9938972,4.81763933 C11.4727934,5.0088239 11.806905,5.49060055 11.806905,6.03990648 C11.806823,6.52206465 11.5583926,6.94996201 11.1651777,7.17912915 Z" id="Shape" fill-rule="nonzero"></path>
                        <circle id="Oval" cx="5.5" cy="6.5" r="1"></circle>
                        <circle id="Oval" cx="8.5" cy="6.5" r="1"></circle>
                        <path d="M6,8.29291272 C6,8.68341614 6.44768094,9 7,9 C7.55231906,9 8,8.68341614 8,8.29291272 C8.00004676,7.90236243 6,7.90236243 6,8.29291272 Z" id="Path"></path>
                    </g>
                </g>
            </g>
        </g>
    </g>
</svg>