<?xml version="1.0" encoding="UTF-8"?>
<svg width="20px" height="18px" viewBox="0 0 20 18" version="1.1" xmlns="http://www.w3.org/2000/svg" xmlns:xlink="http://www.w3.org/1999/xlink">
    <!-- Generator: Sketch 53.1 (72631) - https://sketchapp.com -->
    <title>house</title>
    <desc>Created with Sketch.</desc>
    <g id="Symbols" stroke="none" stroke-width="1" fill="none" fill-rule="evenodd">
        <g id="level/first" transform="translate(-18.000000, -18.000000)" fill="#FFFFFF" fill-rule="nonzero">
            <g id="first_level">
                <g id="icon_beginner">
                    <path d="M37.6642951,26.113114 C38.1118949,26.5452974 38.1118949,27.2445354 37.6643355,27.6759793 C37.4402731,27.8918958 37.1467717,27.9994649 36.8532298,27.9994649 C36.5602936,27.9994649 36.2672766,27.8920125 36.0425279,27.6759793 L28.4630848,20.3692594 C28.2175045,20.1332223 27.7823795,20.1332223 27.5355072,20.36996 L19.957356,27.6759793 C19.5099177,28.1080069 18.7831483,28.1080069 18.3355485,27.6759793 C17.8881505,27.2444964 17.8881505,26.5452585 18.3355485,26.113114 L25.9144264,18.8072893 C27.0277133,17.7321822 28.9677701,17.7302752 30.0836005,18.8053434 L32.3404935,20.9810489 L32.3404935,19.8158079 C32.3404935,19.2054973 32.8535357,18.7108897 33.4861181,18.7108897 C34.1201539,18.7108897 34.6331961,19.2054973 34.6331961,19.8158079 L34.6331961,23.1911578 L37.6642951,26.113114 Z M28.3858603,22.1632486 L34.840308,28.7549673 C34.9427298,28.859028 35,29.0011031 35,29.1493676 L35,33.957161 C35,35.0852966 34.1044741,36 33.0000782,36 L29.8040891,36 L29.8040891,30.9443138 L26.1959109,30.9443138 L26.1959109,36 L22.9999609,36 C21.8955259,36 21,35.0852966 21,33.957121 L21,29.1493676 C21,29.0011031 21.0577784,28.859028 21.159692,28.7549673 L27.6148433,22.1632486 C27.8274271,21.9455838 28.172651,21.9455838 28.3858603,22.1632486 Z" id="house"></path>
                </g>
            </g>
        </g>
    </g>
</svg>