<?xml version="1.0" encoding="UTF-8"?>
<svg width="32px" height="19px" viewBox="0 0 32 19" version="1.1" xmlns="http://www.w3.org/2000/svg" xmlns:xlink="http://www.w3.org/1999/xlink">
    <!-- Generator: Sketch 53.1 (72631) - https://sketchapp.com -->
    <title>rowing</title>
    <desc>Created with Sketch.</desc>
    <g id="Symbols" stroke="none" stroke-width="1" fill="none" fill-rule="evenodd">
        <g id="icon/rowing" transform="translate(-19.000000, -25.000000)" fill="#FFFFFF" fill-rule="nonzero">
            <g id="icon_rowing" transform="translate(0.619048, 0.285714)">
                <path d="M26.4999272,38.5471724 C23.8620463,38.7635215 21.3496016,39.6908302 19.2748805,41.2100893 L18.7016709,40.5438442 C20.0587633,39.5511836 21.5974961,38.7882864 23.2460321,38.2960836 C21.8171024,37.2019557 21.5453862,35.2737314 22.6255513,33.877609 L25.2023891,30.5487909 C25.7960704,29.7797026 26.7850431,29.3531956 27.8060262,29.4271464 L34.9227586,29.9437702 L36.2999505,30.0438617 L34.1939635,32.7662832 L27.9694282,32.3136355 C27.779599,32.2991893 27.5972142,32.3789874 27.4859222,32.5210417 L25.0129321,35.7177802 C24.8811683,35.8890709 24.9236007,36.1270893 25.1071023,36.2491941 C25.2623155,36.3506615 25.4744775,36.3420626 25.6174077,36.2275248 L27.9102462,34.3801305 C28.9200628,33.5659838 30.4022191,33.492033 31.5013672,34.2016167 L32.7497731,33.1160877 L33.8615764,33.1972616 L32.106215,34.7209922 L33.4502799,36.1339685 C33.4625629,35.437799 33.7030132,34.7615791 34.1411091,34.1954255 L36.8370554,30.7114827 C37.4605139,29.904903 38.4934079,29.4608542 39.5627788,29.5375567 L47.0107816,30.0789454 L48.6284238,30.1948589 L48.5011266,31.6893531 C48.4307782,32.5148505 47.6498731,33.1315658 46.7561872,33.0679337 L39.7343695,32.5571572 C39.5363516,32.542711 39.3431725,32.6256047 39.2285306,32.7748821 L36.6390375,36.1195223 C36.5009461,36.2994119 36.5467284,36.547749 36.7399075,36.6753572 C36.9014484,36.7826718 37.1210547,36.7740729 37.2721736,36.652312 L39.6710931,34.7192724 C40.9135435,33.7197327 42.7898745,33.8084736 43.9143331,34.9211753 L45.3711788,33.4442229 L46.5347199,33.5284924 L44.526253,35.5626555 L47.5367201,38.7287818 C48.1553398,38.4144049 48.7471601,38.0556575 49.3062256,37.6539155 L49.8701299,38.3270398 C46.8224413,40.5111682 42.9592319,41.4818155 39.1343604,41.0233205 L37.7958788,42.3798879 C38.1885646,42.4524628 38.5827392,42.5174708 38.9802638,42.571472 C42.6450832,43.0805287 46.3776456,42.1797048 49.3062256,40.0801898 L49.8701299,40.7519383 C46.7424153,42.9941955 42.7571196,43.9555559 38.8421724,43.4114156 C36.8069061,43.1304025 34.8144443,42.6175623 32.9124306,41.8863092 C28.3587641,40.134879 23.1373456,40.8052517 19.2745083,43.6363636 L18.7012987,42.9701185 C20.3531846,41.7614528 22.2674814,40.8994959 24.3150308,40.4454724 L26.4999272,38.5471724 Z M42.3268402,37.7914984 L39.9052157,40.2439134 C41.3907219,40.3539798 42.8859057,40.2380662 44.3289795,39.8985804 L42.3268402,37.7914984 Z M34.6480646,38.7057367 L34.2475623,39.0290565 C35.7192966,39.5264187 37.2371855,39.8910133 38.784107,40.1173372 L41.5571016,37.3082385 C41.4376209,37.3182132 41.3263289,37.3632716 41.2369975,37.4358466 L39.5862283,38.7645534 C38.1639984,39.9116508 36.0379119,39.88551 34.6480646,38.7057367 Z M32.9128028,39.4586591 C31.2798998,38.831969 29.529005,38.5038338 27.7591273,38.4979865 L25.8150534,40.1885363 C28.3431311,39.8806946 30.9121524,40.1957594 33.2660339,41.1010549 C34.4012867,41.5365047 35.5681777,41.8918126 36.7618682,42.1645706 L38.0478677,40.8633804 C36.2858064,40.5658574 34.5646887,40.0956679 32.9128028,39.4586591 Z M30.1680965,37.0210342 L31.1246866,38.028141 C30.3285208,37.8479074 29.5182108,37.7319938 28.7015732,37.6797123 L29.6406692,36.8645336 C29.8338483,36.8236027 30.0378216,36.8834513 30.1680965,37.0210342 Z M28.9840837,24.9350649 C30.2544502,24.9350649 31.2813887,25.8854188 31.2813887,27.057969 C31.2813887,28.231895 30.2544502,29.1822488 28.9840837,29.1822488 C27.715206,29.1822488 26.6867786,28.231895 26.6867786,27.057969 C26.6867786,25.8854188 27.715206,24.9350649 28.9840837,24.9350649 Z M43.0947178,27.057969 C43.0947178,28.231895 42.0644293,29.1822488 40.7959239,29.1822488 C39.5274184,29.1822488 38.4986189,28.231895 38.4986189,27.057969 C38.4986189,25.8854188 39.5274184,24.9350649 40.7959239,24.9350649 C42.0644293,24.9350649 43.0947178,25.8854188 43.0947178,27.057969 Z" id="rowing"></path>
            </g>
        </g>
    </g>
</svg>