<?xml version="1.0" encoding="UTF-8"?>
<svg width="29px" height="29px" viewBox="0 0 29 29" version="1.1" xmlns="http://www.w3.org/2000/svg" xmlns:xlink="http://www.w3.org/1999/xlink">
    <!-- Generator: Sketch 53.1 (72631) - https://sketchapp.com -->
    <title>running</title>
    <desc>Created with Sketch.</desc>
    <g id="Symbols" stroke="none" stroke-width="1" fill="none" fill-rule="evenodd">
        <g id="icon/running" transform="translate(-22.000000, -19.000000)" fill="#FFFFFF" fill-rule="nonzero">
            <g id="icon_running" transform="translate(0.428571, 1.000000)">
                <g id="running" transform="translate(21.818182, 18.701299)">
                    <path d="M18.7193154,6.23376623 C20.4489152,6.23376623 21.8181818,4.85653881 21.8181818,3.11688312 C21.8181818,1.37722742 20.4489152,0 18.7193154,0 C16.9897155,0 15.5844156,1.37722742 15.5844156,3.11688312 C15.5844156,4.78405316 17.0257488,6.23376623 18.7193154,6.23376623 Z" id="Shape"></path>
                    <path d="M1.52951457,23.1543008 L9.50251605,23.1839835 C10.5113448,23.1839835 11.0645735,22.7684256 11.1947449,21.8779443 C11.3574592,20.7203185 11.6178022,17.2177587 11.6178022,17.2177587 L18.3541748,27.339563 C18.6796035,27.7551209 19.2328321,28.0519481 19.8511465,28.0519481 C20.8599753,28.0519481 21.6735469,27.3098803 21.6735469,26.3897163 C21.6735469,26.0928892 21.5759183,25.8257448 21.4457468,25.5586004 L15.1975171,16.060133 C15.0673456,15.852354 15.0022599,15.4961615 15.0998885,15.2883825 C15.8809172,13.8932951 17.7684033,10.7766105 17.7684033,10.7766105 C17.7684033,10.7766105 19.0050321,12.4388423 19.5582608,13.2699582 C19.8836894,13.7448816 20.2416609,14.012026 20.7948896,14.0713914 L20.7948896,14.0713914 L26.7176907,14.0713914 L26.7176907,14.0713914 C27.4661765,14.0713914 28.0519481,13.5371026 28.0519481,12.8544003 C28.0519481,12.1716979 27.4661765,11.6374091 26.7176907,11.6374091 L22.7149185,11.6374091 C21.9338898,11.5780437 21.3806611,11.1624858 20.925061,10.420418 C20.3392895,9.44088854 19.5908036,8.49104181 18.8097749,7.6302432 C17.8985747,6.65071375 16.6944888,6.20547309 15.2626028,6.2351558 C12.8869738,6.26483851 10.5113448,6.26483851 8.13571579,6.2351558 C7.09434417,6.2351558 6.28077259,6.47261749 5.72754392,7.42246423 C4.9465152,8.7581862 3.97022931,10.00486 3.12411486,11.3108993 C2.73360051,11.9045535 2.8312291,12.4091596 3.28682918,12.8544003 C3.74242926,13.2699582 4.39328653,13.3590063 4.9465152,13.0621792 C5.17431524,12.9434484 5.40211529,12.7059867 5.53228674,12.4982077 C6.28077259,11.4296301 6.99671558,10.3907353 7.68011571,9.29247499 C7.87537289,8.99564788 8.10317293,8.87691704 8.49368729,8.90659975 C9.30725887,8.93628246 11.0971163,8.90659975 11.0971163,8.90659975 C11.0971163,8.90659975 9.33980173,12.6169386 8.49368729,14.1604395 C7.87537289,15.2883825 8.00554434,16.5350564 7.81028716,17.7223648 C7.68011571,18.4644325 7.61502998,19.236183 7.54994426,19.9782508 C7.51740139,20.364126 7.35468708,20.4828569 6.93162986,20.4828569 L1.49697171,20.4531742 C0.683400127,20.4531742 0,21.0765111 0,21.8185788 C0,22.5606466 0.71594299,23.1543008 1.52951457,23.1543008 Z" id="Shape"></path>
                </g>
            </g>
        </g>
    </g>
</svg>