<?xml version="1.0" encoding="UTF-8"?>
<svg width="23px" height="35px" viewBox="0 0 23 35" version="1.1" xmlns="http://www.w3.org/2000/svg" xmlns:xlink="http://www.w3.org/1999/xlink">
    <!-- Generator: Sketch 53.1 (72631) - https://sketchapp.com -->
    <title>turist</title>
    <desc>Created with Sketch.</desc>
    <g id="Symbols" stroke="none" stroke-width="1" fill="none" fill-rule="evenodd">
        <g id="icon/turism" transform="translate(-22.000000, -15.000000)" fill="#FFFFFF" fill-rule="nonzero">
            <g id="icon_alpinism" transform="translate(1.000000, 0.000000)">
                <path d="M36.7814453,38.1134655 L37.3974639,47.8781369 C37.4316872,48.3858998 37.2947941,48.854604 36.9867848,49.2451909 C36.6787755,49.6357778 36.2338732,49.8701299 35.7547476,49.8701299 C35.549408,49.8701299 35.3440685,49.8310712 35.138729,49.7529538 C34.5227103,49.479543 34.077808,48.854604 34.0435847,48.112489 L33.5302359,39.792989 L31.1688312,37.7228786 L31.7506265,36.3948833 L35.2071755,40.0663998 L31.4768405,37.0198223 L32.0928591,35.6137096 L35.5151848,38.5821697 L32.0928591,35.6137096 L32.6746545,34.2857143 L36.4392127,37.5275852 C36.473436,37.5275852 36.5076592,37.5666439 36.5076592,37.5666439 L36.5418825,37.6057026 C36.6787755,37.7228786 36.7814453,37.9181721 36.7814453,38.1134655 Z M34.2857143,21.8181818 C32.5643073,21.8181818 31.1688312,20.4227057 31.1688312,18.7012987 C31.1688312,16.9798917 32.5643073,15.5844156 34.2857143,15.5844156 C36.0071213,15.5844156 37.4025974,16.9798917 37.4025974,18.7012987 C37.4025974,20.4227057 36.0071213,21.8181818 34.2857143,21.8181818 Z M43.5655584,25.6743795 C43.7071689,26.2036616 43.6363636,26.7707495 43.3531427,27.2244198 C43.0699218,27.715896 42.6450904,28.0561487 42.1494537,28.2073721 L41.5830118,28.3585956 L42.9283113,49.1140127 C42.9637139,49.5298771 42.680493,49.832324 42.3264668,49.8701299 C42.3264668,49.8701299 42.2910642,49.8701299 42.2910642,49.8701299 C41.9724406,49.8701299 41.6892197,49.6054889 41.6538171,49.2274303 L40.3439202,28.7366542 L36.4142297,29.87083 C36.2372166,29.9086358 36.0602035,29.9464417 35.8831904,29.9464417 C35.3167486,29.9464417 34.7857093,29.6818007 34.4316831,29.2659362 L33.5112151,28.2073721 L30.183369,36.2600203 L25.1207948,47.8664193 C24.8375738,48.5091189 24.2003267,48.9249834 23.527677,48.9249834 C23.3152613,48.9249834 23.1028456,48.8871775 22.8904299,48.8115658 C22.4655985,48.6225365 22.1115723,48.2444779 21.9345592,47.7908076 C21.7575461,47.3371373 21.7929487,46.8456611 21.9699618,46.3919908 L27.0325361,34.7855918 L27.8467963,31.4586761 C27.315757,31.7989288 26.6431073,31.9123464 25.9704576,31.7233171 C24.6959634,31.3452585 23.9525084,29.9086358 24.3065346,28.5476249 L25.2978079,24.6914272 C25.651834,23.3304162 26.9971335,22.5364932 28.2716277,22.9145518 C28.8734722,23.1035811 29.3337062,23.5194455 29.6523298,24.0487276 L29.6877324,23.8596983 L29.8293429,23.7084748 C30.183369,22.6121049 31.1392397,21.8181818 32.2721235,21.8181818 C33.1571889,21.8181818 33.9360465,22.2718521 34.3962805,22.9901635 C34.4316831,23.0279693 34.5024884,23.1035811 34.537891,23.1413869 L36.5558402,25.5231561 L41.193583,24.199951 C41.3351935,24.1621451 41.5122066,24.1243393 41.6892197,24.1243393 C42.5742851,24.1243393 43.3531427,24.7670389 43.5655584,25.6743795 Z" id="turist"></path>
            </g>
        </g>
    </g>
</svg>