<svg width="24" height="24" viewBox="0 0 24 24" xmlns="http://www.w3.org/2000/svg" xmlns:xlink="http://www.w3.org/1999/xlink"><g id="Icons/16px/Eye" stroke="none" stroke-width="1" fill="none" fill-rule="evenodd"><g id="eye" transform="translate(4 6)" fill="#212121" fill-rule="nonzero"><path d="M8 .364c-3.636 0-6.742 2.261-8 5.454 1.258 3.193 4.364 5.455 8 5.455s6.742-2.262 8-5.455C14.742 2.625 11.636.364 8 .364zm0 9.09a3.638 3.638 0 0 1-3.636-3.636A3.638 3.638 0 0 1 8 2.182a3.638 3.638 0 0 1 3.636 3.636A3.638 3.638 0 0 1 8 9.455zm0-5.818a2.179 2.179 0 0 0-2.182 2.182A2.18 2.18 0 0 0 8 8a2.179 2.179 0 0 0 2.182-2.182A2.179 2.179 0 0 0 8 3.636z" id="Shape"/></g></g></svg>