<svg xmlns="http://www.w3.org/2000/svg" width="62" height="75" viewBox="0 0 62 75">
    <defs>
        <linearGradient id="a" x1="50%" x2="50%" y1="0%" y2="100%">
            <stop offset="0%" stop-color="#73D8F7"/>
            <stop offset="100%" stop-color="#3FAFEC"/>
        </linearGradient>
    </defs>
    <path fill="url(#a)" fill-rule="nonzero" d="M2.263 55.533a5.669 5.669 0 0 1 5.658-5.666H18.71C13.466 44.51 0 28.94 0 10.2c0-.772.01-1.539.03-2.3.017-.612.519-1.1 1.13-1.1 4.353-.013 7.893-2.554 7.893-5.667C9.053.507 9.559 0 10.184 0h22.632c.625 0 1.131.507 1.131 1.133 0 3.113 3.54 5.654 7.889 5.666.612 0 1.113.487 1.131 1.1.022.76.033 1.528.033 2.301 0 18.74-13.466 34.31-18.709 39.667H35.08a5.669 5.669 0 0 1 5.658 5.666v5.876A3.393 3.393 0 0 1 39.605 68H3.395a3.393 3.393 0 0 1-1.132-6.591v-5.876zm.009-46.516a76.31 76.31 0 0 0-.009 1.183c0 19.325 15.589 35.678 19.237 39.238 3.646-3.562 19.237-19.931 19.237-39.238 0-.397-.003-.791-.009-1.183-4.598-.404-8.284-3.204-8.94-6.75H11.212c-.656 3.546-4.342 6.348-8.94 6.75zm37.333 56.716a1.133 1.133 0 0 0 0-2.266H3.395a1.133 1.133 0 0 0 0 2.266h36.21zm-1.131-10.2c0-1.877-1.52-3.4-3.395-3.4H7.92a3.398 3.398 0 0 0-3.395 3.4V61.2h33.948v-5.667zm-15.72-9.821a1.13 1.13 0 0 1-1.508 0C20.583 45.12 5 30.982 5 13.18c0-.603.009-1.2.026-1.794a1.135 1.135 0 0 1 1.133-1.106c3.249-.01 5.894-1.863 5.894-4.141 0-.63.507-1.139 1.133-1.139h17.628c.626 0 1.133.51 1.133 1.139 0 2.278 2.645 4.132 5.895 4.141.613 0 1.115.49 1.133 1.106.017.594.025 1.191.025 1.794 0 17.802-15.583 31.94-16.246 32.532zM7.267 13.18c0 14.598 11.627 27.048 14.733 30.11 3.106-3.062 14.733-15.512 14.724-30.11v-.684c-3.491-.385-6.292-2.512-6.913-5.218h-15.63c-.617 2.706-3.418 4.833-6.914 5.218v.684zm8.9 4.82C15.522 18 15 17.552 15 17s.522-1 1.167-1h11.666c.645 0 1.167.448 1.167 1s-.522 1-1.167 1H16.167zM30 22c0 .552-.512 1-1.143 1H15.143C14.512 23 14 22.552 14 22s.512-1 1.143-1h13.714c.631 0 1.143.448 1.143 1zm-11.875-8C17.504 14 17 13.552 17 13s.504-1 1.125-1h6.75c.621 0 1.125.448 1.125 1s-.504 1-1.125 1h-6.75zM25 28.5a3.5 3.5 0 1 1-7 0 3.5 3.5 0 0 1 7 0zm-4.667 0a1.167 1.167 0 1 0 2.334 0 1.167 1.167 0 0 0-2.334 0z" transform="translate(9 7)"/>
</svg>
