<svg xmlns="http://www.w3.org/2000/svg" width="62" height="75" viewBox="0 0 62 75">
    <defs>
        <linearGradient id="a" x1="50%" x2="50%" y1="0%" y2="100%">
            <stop offset="0%" stop-color="#73D8F7"/>
            <stop offset="100%" stop-color="#3FAFEC"/>
        </linearGradient>
    </defs>
    <path fill="url(#a)" fill-rule="nonzero" d="M45.076 67.73v-6.48a6.258 6.258 0 0 0-6.25-6.25h-3.75V8.75c0-.69-.56-1.25-1.25-1.25a1.21 1.21 0 0 0-.35.07l-5.712-.874L24.957.718a1.25 1.25 0 0 0-2.262 0l-2.806 5.98-5.713.875a1.225 1.225 0 0 0-.35-.074c-.69 0-1.25.56-1.25 1.25V55h-3.75a6.258 6.258 0 0 0-6.25 6.25v6.48A3.742 3.742 0 0 0 3.826 75h40a3.74 3.74 0 0 0 1.25-7.27zM29.913 22.486c.03 0 .062.012.093.012a1.25 1.25 0 0 0 1.235-1.451l-1.08-6.614 2.415-2.475V55h-7.309l4.646-32.512zm-6.087 24.921L20.1 21.321l3.726-2.059 3.726 2.059-3.726 26.087zm-2.9-38.339c.413-.063.766-.327.943-.705l1.957-4.172 1.958 4.172c.177.378.53.642.942.705l4.5.688-3.301 3.384a1.252 1.252 0 0 0-.339 1.073l.767 4.695-3.93-2.17a1.25 1.25 0 0 0-1.207 0l-3.928 2.17.766-4.695a1.248 1.248 0 0 0-.339-1.073L16.42 9.757l4.507-.688zm-5.85 2.89l2.415 2.475-1.08 6.614a1.25 1.25 0 0 0 .514 1.223c.238.164.527.24.815.214l4.645 32.514h-7.309V11.96zm-10 49.29a3.75 3.75 0 0 1 3.75-3.75h30a3.75 3.75 0 0 1 3.75 3.75v6.25h-37.5v-6.25zm38.75 11.25h-40a1.25 1.25 0 0 1 0-2.5h40a1.25 1.25 0 0 1 0 2.5z" transform="translate(7)"/>
</svg>
