<svg xmlns="http://www.w3.org/2000/svg" width="62" height="75" viewBox="0 0 62 75">
    <defs>
        <linearGradient id="a" x1="50%" x2="50%" y1="0%" y2="100%">
            <stop offset="0%" stop-color="#73D8F7"/>
            <stop offset="100%" stop-color="#3FAFEC"/>
        </linearGradient>
    </defs>
    <path fill="url(#a)" fill-rule="nonzero" d="M8.75 55a6.257 6.257 0 0 0-6.25 6.25v6.48A3.742 3.742 0 0 0 3.75 75h40A3.741 3.741 0 0 0 45 67.73v-6.48A6.257 6.257 0 0 0 38.75 55h-7.82l-3.013-10.043a3.725 3.725 0 0 0 2.282-6.299 16.335 16.335 0 0 0 6.39-4.983A8.125 8.125 0 0 0 45 40a1.25 1.25 0 0 0 0-2.5 5.81 5.81 0 0 1-6.188-5.438A18.819 18.819 0 0 0 47.5 16.25V3.75c0-.69-.56-1.25-1.25-1.25H40V1.25C40 .56 39.44 0 38.75 0h-30C8.06 0 7.5.56 7.5 1.25V2.5H1.25C.56 2.5 0 3.06 0 3.75v12.5a18.82 18.82 0 0 0 8.682 15.81A5.839 5.839 0 0 1 2.5 37.5a1.25 1.25 0 0 0 0 2.5 8.125 8.125 0 0 0 8.411-6.325 16.335 16.335 0 0 0 6.39 4.983 3.727 3.727 0 0 0 2.282 6.3L16.57 55H8.75zm35 17.5h-40a1.25 1.25 0 0 1 0-2.5h40a1.25 1.25 0 0 1 0 2.5zM42.5 61.25v6.25H5v-6.25a3.75 3.75 0 0 1 3.75-3.75h30a3.75 3.75 0 0 1 3.75 3.75zM45 5v11.25a16.307 16.307 0 0 1-5.757 12.396c.502-1.583.758-3.235.757-4.896V5h5zM2.5 16.25V5h5v18.75c0 1.661.255 3.313.757 4.896A16.307 16.307 0 0 1 2.5 16.25zm7.5 7.5V2.5h27.5v21.25c0 7.594-6.156 13.75-13.75 13.75S10 31.344 10 23.75zm8.75 17.5c0-.69.56-1.25 1.25-1.25h7.5a1.25 1.25 0 0 1 0 2.5H20c-.69 0-1.25-.56-1.25-1.25zM22.18 45h3.14l3 10h-9.14l3-10z" transform="translate(7)"/>
</svg>
