<?xml version="1.0" encoding="UTF-8"?>
<svg width="24px" height="24px" viewBox="0 0 24 24" version="1.1" xmlns="http://www.w3.org/2000/svg" xmlns:xlink="http://www.w3.org/1999/xlink">
    <!-- Generator: Sketch 53.1 (72631) - https://sketchapp.com -->
    <title>Icons/24px/Search_2</title>
    <desc>Created with Sketch.</desc>
    <g id="Icons/24px/Search_2" stroke="none" stroke-width="1" fill="none" fill-rule="evenodd">
        <g id="zoom-split" transform="translate(2.500000, 2.500000)" fill="#1A051D" fill-rule="nonzero">
            <path d="M18.5538136,17.5461864 C18.8320621,17.824435 18.8320621,18.275565 18.5538136,18.5538136 C18.275565,18.8320621 17.824435,18.8320621 17.5461864,18.5538136 L14.1261864,15.1338136 C13.8479379,14.855565 13.8479379,14.404435 14.1261864,14.1261864 C14.404435,13.8479379 14.855565,13.8479379 15.1338136,14.1261864 L18.5538136,17.5461864 Z M7.79,15.3425 C3.61886943,15.3425 0.2375,11.9611306 0.2375,7.79 C0.2375,3.61886943 3.61886943,0.2375 7.79,0.2375 C11.9611306,0.2375 15.3425,3.61886943 15.3425,7.79 C15.3425,11.9611306 11.9611306,15.3425 7.79,15.3425 Z M7.79,13.9175 C11.1741248,13.9175 13.9175,11.1741248 13.9175,7.79 C13.9175,4.4058752 11.1741248,1.6625 7.79,1.6625 C4.4058752,1.6625 1.6625,4.4058752 1.6625,7.79 C1.6625,11.1741248 4.4058752,13.9175 7.79,13.9175 Z M4.275,7.22 C4.275,7.48233526 4.06233526,7.695 3.8,7.695 C3.53766474,7.695 3.325,7.48233526 3.325,7.22 C3.325,5.0688509 5.0688509,3.325 7.22,3.325 C7.48233526,3.325 7.695,3.53766474 7.695,3.8 C7.695,4.06233526 7.48233526,4.275 7.22,4.275 C5.59352141,4.275 4.275,5.59352141 4.275,7.22 Z" id="Combined-Shape"></path>
        </g>
    </g>
</svg>