<svg width="24" height="24" viewBox="0 0 24 24" xmlns="http://www.w3.org/2000/svg" xmlns:xlink="http://www.w3.org/1999/xlink"><g id="Icons/24px/Search_2" stroke="none" stroke-width="1" fill="none" fill-rule="evenodd"><g id="zoom-split" transform="translate(2.5 2.5)" fill="#1A051D" fill-rule="nonzero"><path d="M18.554 17.546a.713.713 0 0 1-1.008 1.008l-3.42-3.42a.713.713 0 0 1 1.008-1.008l3.42 3.42zM7.79 15.342a7.552 7.552 0 1 1 0-15.104 7.552 7.552 0 0 1 0 15.104zm0-1.425a6.128 6.128 0 1 0 0-12.255 6.128 6.128 0 0 0 0 12.256zM4.275 7.22a.475.475 0 1 1-.95 0A3.895 3.895 0 0 1 7.22 3.325a.475.475 0 1 1 0 .95A2.945 2.945 0 0 0 4.275 7.22z" id="Combined-Shape"/></g></g></svg>