<svg width="29" height="29" viewBox="0 0 29 29" xmlns="http://www.w3.org/2000/svg" xmlns:xlink="http://www.w3.org/1999/xlink"><g id="Symbols" stroke="none" stroke-width="1" fill="none" fill-rule="evenodd"><g id="icon/sport/badminton" transform="translate(-20 -18)" fill="#FFF" fill-rule="nonzero"><g id="icon_badminton" transform="translate(.238)"><path d="M23.589 39.385l4.144 4.535c.517.585.592 1.317.149 1.756-.447.365-1.408.951-2.22 1.024-1.039.146-2.517.074-3.776-1.316-1.256-1.463-1.626-2.707-1.626-3.585 0-1.244.665-1.901.665-1.901s.368-.294.887-.732c.446-.439 1.26-.292 1.777.219zm17.757-3.437l-11.022 6.73-.891-.878 8.658-6.877.443.074c1.038 0 1.999.365 2.812.95zm-12.8 4.973l-.738-.73-3.036-3.219 6.735-10.752c.591.803.96 1.754.96 2.779l.074.438-6.88 8.485.824.867 6.946-8.62h.148c1.034 0 2.07.439 2.738 1.243a3.956 3.956 0 0 1 1.035 2.633l-8.805 6.876zm19.165-6.73c.813.878.813 2.195-.074 3-.37.293-.738.366-1.259.512l-10.21 2.78 6.512-3.95.591-.366-.519-.511a6.08 6.08 0 0 0-4.144-1.903h-.074a5.043 5.043 0 0 0-1.33-3.145c-.887-.951-2.146-1.536-3.552-1.609v-.073c0-1.536-.667-3.073-1.85-4.17l-.518-.513-4.07 6.511c1.037-3.95 2.664-10.315 2.664-10.388.148-.365.296-.804.668-1.096.887-.805 2.217-.732 3.034.073.517.585.664 1.244.517 1.902 0 .146.074.292.147.365.074.073.222.146.296.073a2.402 2.402 0 0 1 1.925.66c.37.438.59 1.024.516 1.608 0 .147.075.365.223.439.073.146.222.22.443.22.518 0 1.108.22 1.555.658.518.511.74 1.317.518 1.974 0 .073 0 .22.074.294.074.072.148.072.296.072.665-.145 1.403.074 1.999.66.442.437.663 1.17.517 1.754 0 .147 0 .293.146.367.075.146.224.146.296.146a2.251 2.251 0 0 1 1.85.657c.518.513.667 1.317.445 2.05 0 .072 0 .146.073.219.075.146.223.146.296.146.591-.073 1.482-.073 2 .584z" id="Combined-Shape"/></g></g></g></svg>