<svg width="16" height="16" viewBox="0 0 16 16" xmlns="http://www.w3.org/2000/svg" xmlns:xlink="http://www.w3.org/1999/xlink"><g id="Symbols" stroke="none" stroke-width="1" fill="none" fill-rule="evenodd"><g id="header-mobile" transform="translate(-293 -16)" fill="#FFF"><g transform="translate(10 11)" id="Top-Navigation"><path d="M15.707 13.293L13 10.586A6.95 6.95 0 0 0 14 7c0-3.86-3.141-7-7-7S0 3.14 0 7s3.141 7 7 7a6.937 6.937 0 0 0 3.586-1l2.707 2.707a.997.997 0 0 0 1.414 0l1-1a.999.999 0 0 0 0-1.414zM7 12a5 5 0 1 1 .001-10.001A5 5 0 0 1 7 12z" transform="translate(283 5)" id="Search"/></g></g></g></svg>