<svg xmlns="http://www.w3.org/2000/svg" width="62" height="75" viewBox="0 0 62 75">
    <defs>
        <linearGradient id="a" x1="50%" x2="50%" y1="0%" y2="100%">
            <stop offset="0%" stop-color="#73D8F7"/>
            <stop offset="100%" stop-color="#3FAFEC"/>
        </linearGradient>
    </defs>
    <path fill="url(#a)" fill-rule="nonzero" d="M16.426 32.627c.186.053.378.097.566.146a17.942 17.942 0 0 0 8.145 4.863v6.653a8.388 8.388 0 0 1-8.379 8.38h-1.197a5.992 5.992 0 0 0-5.985 5.984v6.206a3.583 3.583 0 0 0 1.197 6.961h38.304a3.583 3.583 0 0 0 1.197-6.961v-6.206a5.992 5.992 0 0 0-5.985-5.985h-1.197a8.388 8.388 0 0 1-8.379-8.379v-6.653a17.95 17.95 0 0 0 8.158-4.877 22.596 22.596 0 0 0 16.98-21.986V8.38c0-3.3-3.222-5.985-7.183-5.985a7.997 7.997 0 0 0-4.788 1.537V1.197C47.88.536 47.344 0 46.683 0H13.167c-.661 0-1.197.536-1.197 1.197v2.734a7.997 7.997 0 0 0-4.788-1.537C3.221 2.394 0 5.079 0 8.379v2.394a22.844 22.844 0 0 0 16.426 21.854zm32.651 36.8H10.773a1.197 1.197 0 0 1 0-2.395h38.304a1.197 1.197 0 0 1 0 2.394zM47.88 58.652v5.985H11.97v-5.985a3.591 3.591 0 0 1 3.591-3.59H44.29a3.591 3.591 0 0 1 3.591 3.59zm-11.552-5.985H23.52a10.76 10.76 0 0 0 4.011-8.379v-6.163c1.588.238 3.2.238 4.788 0v6.163a10.76 10.76 0 0 0 4.01 8.38zm16.34-47.88c2.641 0 4.788 1.611 4.788 3.591v2.394a20.213 20.213 0 0 1-12.01 18.563 17.822 17.822 0 0 0 2.434-8.987v-5.454c.725.431 1.551.661 2.394.666a4.788 4.788 0 0 0 4.788-4.788 1.197 1.197 0 0 0-2.394 0 2.394 2.394 0 0 1-4.788 0V8.38c0-1.98 2.148-3.591 4.788-3.591zM14.364 2.394h31.122v17.955c0 8.594-6.967 15.561-15.56 15.561-8.595 0-15.562-6.967-15.562-15.56V2.393zM2.394 8.379c0-1.98 2.147-3.591 4.788-3.591 2.64 0 4.788 1.611 4.788 3.591v2.394a2.394 2.394 0 0 1-4.788 0 1.197 1.197 0 0 0-2.394 0 4.788 4.788 0 0 0 4.788 4.788 4.738 4.738 0 0 0 2.394-.666v5.454c0 3.155.837 6.252 2.425 8.978A20.454 20.454 0 0 1 2.394 10.773V8.38z" transform="translate(1 3)"/>
</svg>
