<svg xmlns="http://www.w3.org/2000/svg" width="62" height="75" viewBox="0 0 62 75">
    <defs>
        <linearGradient id="a" x1="50%" x2="50%" y1="0%" y2="100%">
            <stop offset="0%" stop-color="#73D8F7"/>
            <stop offset="100%" stop-color="#3FAFEC"/>
        </linearGradient>
    </defs>
    <path fill="url(#a)" fill-rule="nonzero" d="M35.907 46.689c3.358.965 5.351 2.791 5.396 4.983h3.268c.646 0 1.169.523 1.169 1.169v15.296h.854c.646 0 1.169.522 1.169 1.168v4.317c0 .646-.523 1.169-1.169 1.169H15.049a1.168 1.168 0 0 1-1.169-1.169v-4.317c0-.646.524-1.168 1.169-1.168h.854V52.84c0-.646.523-1.169 1.169-1.169h3.268c.046-2.254 2.156-4.124 5.693-5.065a.261.261 0 0 1-.033-.125v-.852c-1.28-.763-1.446-3.355-1.446-3.386 0-.017.038-.775.252-1.613-2.837-1.6-5.425-4.311-7.7-8.066C11.065 30.574.01 22.613.01 12.023c0-5.184 4.44-9.392 9.666-8.985-.011-.353-.02-.699-.023-1.047-.002-.53.202-1.03.576-1.407A1.963 1.963 0 0 1 11.63 0h38.385c.531 0 1.029.21 1.403.588.374.378.576.879.569 1.41-.004.347-.011.693-.022 1.038.22-.017.44-.026.656-.026 4.97 0 9.014 4.043 9.014 9.013-.001 10.588-11.052 18.548-17.096 20.541-2.276 3.757-4.867 6.471-7.704 8.07.218.837.256 1.593.256 1.61 0 .028-.137 2.158-1.09 3.126v1.112a.303.303 0 0 1-.093.207zm-8.677-5.96c-.167.451-.336 1.232-.34 1.516.005.237.153.874.305 1.257h7.253c.151-.382.301-1.02.305-1.26-.004-.281-.172-1.062-.34-1.513H27.23zm19.091-11.473c5.29-2.72 12.973-9.09 12.973-17.233 0-3.927-3.373-7.123-7.427-6.63-.022.406-.046.81-.073 1.212-.575 8.551-2.466 16.377-5.473 22.651zm-31 0c-3.006-6.27-4.897-14.097-5.474-22.652a88.73 88.73 0 0 1-.074-1.21c-4.054-.499-7.427 2.702-7.427 6.629 0 8.144 7.685 14.513 12.974 17.233zm28.082 38.88V54.01H18.24v14.128h25.163zm-26.331 2.338h-.855v1.98h29.208v-1.98H17.071zm22.826-14.129c.646 0 1.168.523 1.168 1.169v7.116c0 .645-.523 1.168-1.168 1.168H21.746a1.168 1.168 0 0 1-1.169-1.168v-7.116c0-.646.524-1.169 1.169-1.169h18.152zm-1.169 7.116v-4.778H22.915v4.778h15.814zM49.576 4.366c.027-.674.055-1.347.067-2.029H11.999c.011.645.038 1.285.064 1.924.033.805.072 1.498.118 2.186.563 8.357 2.412 15.966 5.349 22.005.424.873.88 1.725 1.358 2.535 1.992 3.386 4.308 5.935 6.72 7.404h10.428c2.41-1.468 4.727-4.018 6.72-7.403a36.92 36.92 0 0 0 1.357-2.536c2.938-6.042 4.788-13.65 5.349-22.005.046-.69.084-1.381.114-2.081zm-4.715.694l2.335.122c-.021.377-.042.731-.066 1.088-.508 7.536-2.238 14.668-4.87 20.084a33.202 33.202 0 0 1-1.22 2.28c-1.552 2.63-3.33 4.705-5.146 5.998l-1.355-1.905c1.55-1.103 3.101-2.929 4.486-5.28.4-.682.782-1.395 1.132-2.115 2.506-5.151 4.154-11.976 4.64-19.217.024-.342.045-.688.064-1.055zM23.5 50.671h14.64c-.722-.599-1.907-1.186-3.515-1.57-2.404-.573-5.202-.573-7.61 0-1.608.384-2.793.971-3.515 1.57z"/>
</svg>
