<svg xmlns="http://www.w3.org/2000/svg" width="62" height="75" viewBox="0 0 62 75">
    <defs>
        <linearGradient id="a" x1="50%" x2="50%" y1="0%" y2="100%">
            <stop offset="0%" stop-color="#73D8F7"/>
            <stop offset="100%" stop-color="#3FAFEC"/>
        </linearGradient>
    </defs>
    <path fill="url(#a)" fill-rule="nonzero" d="M2.488 61.151a6.232 6.232 0 0 1 6.224-6.224h.997L.02 1.623A1.246 1.246 0 0 1 1.706.243c.123.05 12.347 4.892 21.944 4.892 9.598 0 21.822-4.841 21.946-4.891a1.246 1.246 0 0 1 1.684 1.38l-9.688 53.303h.996a6.231 6.231 0 0 1 6.224 6.224v6.454a3.726 3.726 0 0 1-1.245 7.24H3.733a3.725 3.725 0 0 1-1.245-7.24V61.15zm41.08 11.204a1.245 1.245 0 0 0 0-2.49H3.732a1.245 1.245 0 0 0 0 2.49h39.834zM42.321 61.15a3.734 3.734 0 0 0-3.734-3.734H8.712a3.735 3.735 0 0 0-3.734 3.734v6.225h37.344V61.15zm-25.104-6.224h12.864l8.169-44.346a64.456 64.456 0 0 1-14.6 2.023A64.461 64.461 0 0 1 9.05 10.58l8.168 44.346zM2.862 3.331l9.38 51.596h2.446L6.244 9.095a1.245 1.245 0 0 1 1.576-1.42 65.986 65.986 0 0 0 15.83 2.44 65.996 65.996 0 0 0 15.83-2.44 1.245 1.245 0 0 1 1.576 1.42l-8.443 45.832h2.446l9.38-51.596c-4.005 1.43-13.042 4.293-20.789 4.293-7.746 0-16.783-2.862-20.788-4.293zm27.012 29.19a1.245 1.245 0 0 1 0 2.49H17.426a1.245 1.245 0 0 1 0-2.49h12.448zm1.245-4.98a1.245 1.245 0 0 1 0 2.49H16.181a1.245 1.245 0 0 1 0-2.49H31.12zM27.385 37.5a1.245 1.245 0 0 1 0 2.49h-7.47a1.245 1.245 0 0 1 0-2.49h7.47zM23.65 25.052a3.735 3.735 0 1 1 0-7.47 3.735 3.735 0 0 1 0 7.47zm0-4.98a1.245 1.245 0 1 0 0 2.49 1.245 1.245 0 0 0 0-2.49z" transform="translate(7)"/>
</svg>
