<?xml version="1.0" encoding="UTF-8"?>
<svg width="29px" height="29px" viewBox="0 0 29 29" version="1.1" xmlns="http://www.w3.org/2000/svg" xmlns:xlink="http://www.w3.org/1999/xlink">
    <!-- Generator: Sketch 53.1 (72631) - https://sketchapp.com -->
    <title>basket</title>
    <desc>Created with Sketch.</desc>
    <g id="Symbols" stroke="none" stroke-width="1" fill="none" fill-rule="evenodd">
        <g id="icon/sport/basketball" transform="translate(-21.000000, -20.000000)" fill="#FFFFFF" fill-rule="nonzero">
            <g id="icon_basketball" transform="translate(0.952381, 0.000000)">
                <g id="basket" transform="translate(20.259740, 20.259740)">
                    <path d="M23.847573,4.51923323 C19.1543778,6.14553084 16.0290884,9.63971825 16.0262705,13.0130916 C19.6260408,12.763438 23.6900905,13.1301603 28.0369667,14.6169885 C28.0451351,14.4207684 28.0519481,14.224156 28.0519481,14.025974 C28.0519481,10.2992546 26.5881982,6.90925897 24.2082313,4.39435292 L23.847573,4.51923323 Z" id="Shape"></path>
                    <path d="M0.805961338,9.75500328 C4.48299263,10.2336576 7.32520566,11.9812329 8.60782377,14.4463794 C9.40347649,14.1914823 10.2535614,13.9576661 11.1442031,13.7505311 C9.85962314,6.72224166 11.2039859,0.414912214 11.2275637,0.309043987 L11.2339843,0.280044351 C6.24661936,1.29217769 2.21210433,4.96079082 0.673447675,9.73777471 L0.805961338,9.75500328 Z" id="Shape"></path>
                    <path d="M27.8571547,15.7860694 C23.6142562,14.3030221 19.6523295,13.9349088 16.1483685,14.1696881 C16.1543254,14.1965118 16.1556095,14.2237636 16.1619944,14.2505517 C16.99667,17.7410651 21.3660896,20.0059609 26.5490683,19.6270039 L26.8928904,19.602249 C27.4093905,18.4148694 27.7642346,17.1426669 27.934166,15.8130002 L27.8571547,15.7860694 Z" id="Shape"></path>
                    <path d="M12.368715,0.562157591 C12.3461002,0.664030812 11.0526385,6.75541473 12.2802893,13.5083325 C13.1061544,13.3479607 13.9631236,13.2130928 14.8550494,13.1166057 C14.7730443,9.2275169 18.0790016,5.35547829 23.2690073,3.48908663 C20.7992237,1.31982183 17.5654979,0 14.025974,0 C13.5011272,0 12.9836283,0.0314608442 12.4735488,0.0879619675 L12.368715,0.562157591 Z" id="Shape"></path>
                    <path d="M11.3747733,14.886974 C10.560929,15.0767378 9.78350353,15.2897585 9.05280575,15.5213274 C9.09682241,15.6621522 9.14190914,15.8026559 9.17640193,15.947012 C9.90321171,18.9883701 8.39908356,22.2714273 5.15255225,24.7295112 L5.05916848,24.800209 C7.49231906,26.8288273 10.6191065,28.0519481 14.025974,28.0519481 C15.6168514,28.0519481 17.1446644,27.7821053 18.5709609,27.2921793 C14.4396022,23.8705088 12.3564089,19.297093 11.3747733,14.886974 Z" id="Shape"></path>
                    <path d="M25.3919369,20.8380682 C20.1167872,20.8383536 15.9382729,18.3423169 15.0251235,14.5222136 C15.0052197,14.4389601 14.9982284,14.3550645 14.9816419,14.2715969 C14.1258854,14.3634113 13.3036586,14.4919299 12.5115015,14.6448824 C13.4574315,18.8795768 15.4578706,23.2548464 19.4307837,26.4904627 L19.8098833,26.7991143 C22.5622796,25.5479927 24.8415146,23.435336 26.2998427,20.8051092 C25.9951148,20.8211963 25.6899232,20.8380682 25.3919369,20.8380682 Z" id="Shape"></path>
                    <path d="M8.03953099,16.2186739 C8.01338494,16.10931 7.97807174,16.0031564 7.94521975,15.8961467 C3.80312439,17.3814412 1.31190312,19.2557872 1.25911169,19.2965579 L1.08504257,19.4307124 C1.80839238,21.1554233 2.86714625,22.70553 4.17883535,24.0006325 L4.44714429,23.7975281 C7.31243577,21.6282277 8.65533606,18.7951819 8.03953099,16.2186739 Z" id="Shape"></path>
                    <path d="M7.4897865,14.8291887 C6.34349869,12.7852323 3.86194401,11.3315057 0.655291636,10.9141322 L0.361407331,10.8757871 C0.127662545,11.8892402 0,12.9427149 0,14.025974 C0,15.5102697 0.2338875,16.9407396 0.663460071,18.28471 C1.20796106,17.8932329 3.67242984,16.2064391 7.4897865,14.8291887 Z" id="Shape"></path>
                </g>
            </g>
        </g>
    </g>
</svg>