<?xml version="1.0" encoding="UTF-8"?>
<svg width="22px" height="24px" viewBox="0 0 22 24" version="1.1" xmlns="http://www.w3.org/2000/svg" xmlns:xlink="http://www.w3.org/1999/xlink">
    <!-- Generator: Sketch 53.1 (72631) - https://sketchapp.com -->
    <title>boxing</title>
    <desc>Created with Sketch.</desc>
    <g id="Symbols" stroke="none" stroke-width="1" fill="none" fill-rule="evenodd">
        <g id="icon/sport/boxing" transform="translate(-22.000000, -20.000000)" fill="#FFFFFF" fill-rule="nonzero">
            <g id="icon_boxing" transform="translate(0.571429, 0.000000)">
                <path d="M40.6507937,37 L28.2063492,37 C27.2285714,37 26.4285714,37.63 26.4285714,38.4 L26.4285714,42.6 C26.4285714,43.37 27.2285714,44 28.2063492,44 L40.6507937,44 C41.6285714,44 42.4285714,43.37 42.4285714,42.6 L42.4285714,38.4 C42.4285714,37.63 41.6285714,37 40.6507937,37 Z M38.4285714,41.6666667 C38.4285714,41.8666667 38.2485714,42 37.9785714,42 L29.8785714,42 C29.6085714,42 29.4285714,41.8666667 29.4285714,41.6666667 L29.4285714,40.3333333 C29.4285714,40.1333333 29.6085714,40 29.8785714,40 L37.9785714,40 C38.2485714,40 38.4285714,40.1333333 38.4285714,40.3333333 L38.4285714,41.6666667 Z M28.2442577,21.0125331 C33.377591,19.1000376 43.4285714,19.5875365 43.4285714,25.1750232 C43.4285714,30.1250115 42.7383754,32.4125061 42.2207283,33.9125026 C42.005042,34.5500011 41.3579832,35 40.5815126,35 L26.9501401,35 C26.4756303,35 26.0011204,34.8125004 25.6560224,34.4750012 C24.405042,33.2000043 21.4285714,30.0125118 21.4285714,28.250016 C21.4285714,27.2375184 22.0756303,26.4125203 23.3266106,26.112521 C23.887395,25.9625214 24.4481793,26.3375205 24.4481793,26.8250193 L24.4481793,28.8125146 C24.4481793,29.2625136 24.8795518,29.6375127 25.4403361,29.5625129 C25.8717087,29.487513 26.1736695,29.1500138 26.1736695,28.7750147 L26.1736695,23.7500266 C26.1736695,22.5875294 26.9932773,21.462532 28.2442577,21.0125331 Z" id="boxing"></path>
            </g>
        </g>
    </g>
</svg>