<?xml version="1.0" encoding="UTF-8"?>
<svg width="25px" height="27px" viewBox="0 0 25 27" version="1.1" xmlns="http://www.w3.org/2000/svg" xmlns:xlink="http://www.w3.org/1999/xlink">
    <!-- Generator: Sketch 53.1 (72631) - https://sketchapp.com -->
    <title>building</title>
    <desc>Created with Sketch.</desc>
    <g id="Symbols" stroke="none" stroke-width="1" fill="none" fill-rule="evenodd">
        <g id="icon/building" transform="translate(-22.000000, -21.000000)" fill="#FFFFFF" fill-rule="nonzero">
            <g id="icon_building" transform="translate(0.428571, 0.000000)">
                <g id="building" transform="translate(21.571429, 21.000000)">
                    <path d="M24.2471544,22.4369493 L15.6613707,13.8508338 C15.5809612,13.7700925 15.4949662,13.6984761 15.4064273,13.6314498 L16.9270731,12.0302286 C17.004828,11.9519207 17.07838,11.8695756 17.14607,11.7849079 C19.1648783,12.5464198 21.5337499,12.1183251 23.1564283,10.4958679 C24.3400069,9.3119022 24.936884,7.67473461 24.7924345,6.00388796 C24.776784,5.81480959 24.6515244,5.65133616 24.4733959,5.58679845 C24.2948802,5.5215971 24.094852,5.56606011 23.9605229,5.69989153 L21.2088492,8.45139931 L18.4228881,7.74911613 L17.632785,4.87522449 L20.3837951,2.12404853 C20.5187878,1.98949817 20.562919,1.78930406 20.4978836,1.61100963 C20.4331247,1.43221748 20.2697065,1.30800864 20.0800751,1.29136267 C18.4093944,1.14735563 16.7721162,1.74390092 15.5880952,2.92786663 C13.9667993,4.54916247 13.5375986,6.91676208 14.298281,8.93474091 C14.2155488,9.00469824 14.1332038,9.07907976 14.0524625,9.15865969 L11.8143255,11.3082026 L7.7043181,7.1985823 C7.65299762,7.14709592 7.5982484,7.10180338 7.54184011,7.05927596 C7.59006366,6.97466352 7.63695997,6.88756249 7.68075934,6.79714333 C8.54878334,6.9642114 10.1356259,5.27389836 11.4833415,3.92668043 L7.55710353,7.10542736e-15 C5.80142323,1.7559568 4.51940665,2.93439229 4.6858111,3.80241629 C4.28442742,3.99851804 3.92662191,4.23830856 3.6723422,4.49292009 L3.11926447,5.04583191 C2.76018701,5.40540709 2.54362343,5.85258102 2.46631089,6.31855772 C2.41266772,6.3798326 2.35808441,6.44437032 2.30383291,6.51338752 L2.09772145,6.77242322 C2.09197001,6.77878298 2.07421799,6.80427732 2.06929609,6.81080298 L1.88248512,7.07232729 C1.76563148,7.22822431 1.66348824,7.39755977 1.56471843,7.5609779 C1.52827426,7.62164446 1.49116645,7.68242162 1.45328442,7.74303288 C1.44725647,7.75348501 1.44133913,7.76377122 1.43597481,7.77411274 L1.35296615,7.93050748 C1.25264788,8.11864571 1.14851376,8.31342021 1.05942184,8.5277164 L1.04504326,8.56183789 C0.939969,8.81141691 0.831078885,9.06984429 0.755093604,9.34375629 L0.718317612,9.462269 C0.688233192,9.55971155 0.657651052,9.65693289 0.629557513,9.7731229 L0.553240418,10.1510031 C0.496334411,10.3873096 0.477199835,10.6204086 0.46055386,10.8268518 L0.449438109,10.9625082 C0.42134457,11.1765832 0.429529302,11.3784364 0.437161011,11.5565649 C0.439760217,11.616236 0.442082911,11.6747458 0.443852583,11.7536621 C0.445843463,11.7865116 0.446175277,11.8185316 0.447170717,11.8501092 C0.449106296,11.9296892 0.451263083,12.0201083 0.466637107,12.1151729 L0.514528849,12.4218238 C0.524815066,12.4811078 0.533497518,12.5386774 0.54168225,12.5938691 C0.559987292,12.7184097 0.578790054,12.8472087 0.615897859,12.9694819 L0.816755604,13.6664008 C0.878694116,13.8782084 1.07988367,14.0184549 1.3000419,14.0030808 C1.41656373,13.9949514 1.52130617,13.9445711 1.59928234,13.866429 C1.66890786,13.7968035 1.71713141,13.7052783 1.73184181,13.602029 L1.83597593,12.8934966 C1.84366295,12.8372543 1.86783003,12.7549092 1.89282664,12.6677529 C1.91063396,12.6073075 1.92794356,12.5456455 1.94132671,12.4930531 L2.01537641,12.2285978 C2.02439067,12.1928172 2.04186618,12.1579768 2.05724021,12.1221963 C2.0719506,12.0890149 2.086661,12.0548381 2.09976763,12.0211591 C2.12459834,11.9649167 2.14799119,11.9087296 2.17099692,11.8510494 C2.21662127,11.7379563 2.25975702,11.6315548 2.32562199,11.5270888 C2.35426855,11.4788653 2.38086893,11.4309735 2.40802233,11.3820863 C2.47665241,11.2592048 2.54185376,11.1431807 2.6193322,11.0470101 C2.6241988,11.0413139 2.62862298,11.0349542 2.63371078,11.0282073 L2.80841057,10.7873107 C2.84419112,10.7420182 2.88439585,10.6992143 2.92349453,10.6560785 C2.95125626,10.6256623 2.97907329,10.5950801 3.01419021,10.5548754 C3.11732889,10.4308325 3.2384408,10.3226613 3.35529444,10.2162045 L3.41789658,10.1599621 C3.50449989,10.0795526 3.60470756,10.0038992 3.71011363,9.92393212 C3.75324938,9.89169091 3.79544499,9.85967091 3.83692167,9.82814863 C3.89017773,9.79364004 3.94171942,9.75918674 3.99248688,9.72500995 C4.08760674,9.66074875 4.16995178,9.60516999 4.26512694,9.55567449 L4.47223383,9.43782541 L4.68177403,9.33507384 C4.75482829,9.29730241 4.82677651,9.26821343 4.8930839,9.24144714 C4.9324591,9.22507768 4.97139188,9.20920594 5.00750424,9.1935554 C5.04428023,9.18083589 5.07972897,9.16706563 5.11324213,9.15467793 C5.15814755,9.13830846 5.19691442,9.12260262 5.24956216,9.10888767 L5.30608105,9.09616815 C5.36768775,9.1958781 5.43991247,9.29066614 5.52657109,9.37726945 L9.59211545,13.4429797 L0.91309211,21.7792398 C0.909663371,21.7825026 0.906400539,21.7860972 0.903248311,21.7890836 C-0.176749183,22.869081 -0.352610314,24.4508358 0.727553087,25.5311651 C1.80771649,26.6111626 3.28893175,26.3342643 4.36865273,25.2546539 C4.37340873,25.2500638 4.37750109,25.2458055 4.38170406,25.2408836 L12.0381889,17.1788121 C12.0830944,17.2317364 12.1275574,17.2849924 12.17744,17.3349856 L20.7625601,25.9208247 C21.7245979,26.883139 23.2850613,26.883139 24.2470991,25.9208247 C25.2088604,24.9591187 25.2088604,23.3986 24.2471544,22.4369493 Z M3.248174,24.3641772 C2.85049557,24.762298 2.20545022,24.762298 1.80743998,24.3641772 C1.40981685,23.9663881 1.40981685,23.3217299 1.80743998,22.9239409 C2.2050631,22.5264284 2.85016376,22.5261518 3.248174,22.9239409 C3.64546531,23.3217852 3.64546531,23.9663881 3.248174,24.3641772 Z"></path>
                </g>
            </g>
        </g>
    </g>
</svg>