<?xml version="1.0" encoding="UTF-8"?>
<svg width="22px" height="15px" viewBox="0 0 22 15" version="1.1" xmlns="http://www.w3.org/2000/svg" xmlns:xlink="http://www.w3.org/1999/xlink">
    <!-- Generator: Sketch 53.1 (72631) - https://sketchapp.com -->
    <title>laptop</title>
    <desc>Created with Sketch.</desc>
    <g id="Symbols" stroke="none" stroke-width="1" fill="none" fill-rule="evenodd">
        <g id="level/four" transform="translate(-17.000000, -20.000000)" fill="#FFFFFF" fill-rule="nonzero">
            <g id="laptop" transform="translate(17.000000, 20.000000)">
                <path d="M21.9729169,12.0538397 C21.9519076,12.0200334 21.9209583,12 21.8884277,12 L0.11166632,12 C0.0791357056,12 0.0484123475,12.0197204 0.0271770853,12.0538397 C0.0059418231,12.0876461 -0.00354627277,12.1330342 0.00119777517,12.1777963 C0.00436047379,12.2059683 0.332829317,15 2.88219032,15 L19.1179037,15 C21.6670388,15 21.9955076,12.2059683 21.9988962,12.1777963 C22.0034144,12.1330342 21.9939263,12.0876461 21.9729169,12.0538397 Z M12.6377601,14.0214942 L9.36210798,14.0214942 L9.36210798,12.9778798 L12.6377601,12.9778798 L12.6377601,14.0214942 Z" id="Shape"></path>
                <path d="M2.44792833,11 L19.5520717,11 C19.7993281,11 20,10.8063882 20,10.5678309 L20,0.432169096 C20,0.193611755 19.7993281,0 19.5520717,0 L2.44792833,0 C2.20067189,0 2,0.193611755 2,0.432169096 L2,10.5678309 C2,10.8063882 2.20067189,11 2.44792833,11 Z M3.56774916,1.51259184 L18.4322508,1.51259184 L18.4322508,9.48740816 L3.56774916,9.48740816 L3.56774916,1.51259184 Z" id="Shape"></path>
            </g>
        </g>
    </g>
</svg>