<?xml version="1.0" encoding="UTF-8"?>
<svg width="19px" height="19px" viewBox="0 0 19 19" version="1.1" xmlns="http://www.w3.org/2000/svg" xmlns:xlink="http://www.w3.org/1999/xlink">
    <!-- Generator: Sketch 53.1 (72631) - https://sketchapp.com -->
    <title>medicine</title>
    <desc>Created with Sketch.</desc>
    <g id="Symbols" stroke="none" stroke-width="1" fill="none" fill-rule="evenodd">
        <g id="level/second" transform="translate(-18.000000, -19.000000)" fill="#FFFFFF">
            <g id="second_level">
                <g id="icon_first_practice">
                    <g id="medicine" transform="translate(18.000000, 19.000000)">
                        <polygon id="Path" points="15.2121212 7 12.7878788 7 12.7878788 9.78787879 10 9.78787879 10 12.2121212 12.7878788 12.2121212 12.7878788 15 15.2121212 15 15.2121212 12.2121212 18 12.2121212 18 9.78787879 15.2121212 9.78787879"></polygon>
                        <path d="M8.83186813,8.22188216 L11.7131868,8.22188216 L11.7131868,5.2824071 L16.7241758,5.2824071 L16.7241758,8.22188216 L18.1773209,8.22188216 C18.6979626,7.3698604 19,6.40392334 19,5.3450307 C19,2.39354212 16.6551495,0.000383409791 13.7626396,0.000383409791 C12.0051604,0.000383409791 10.45,0.883546563 9.5,2.23881497 C8.55,0.883503962 6.99483956,0 5.23736044,0 C2.34485055,0 0,2.3926049 0,5.34413607 C0,6.62719564 0.443138462,7.8044341 1.18171648,8.72564003 L9.5,19 L11.7131868,16.2663308 L11.7131868,13.3340127 L8.83186813,13.3340127 L8.83186813,8.22188216 Z" id="Path"></path>
                    </g>
                </g>
            </g>
        </g>
    </g>
</svg>